<svg width="16" height="16" viewBox="0 0 16 16" fill="none" xmlns="http://www.w3.org/2000/svg">
<path fill-rule="evenodd" clip-rule="evenodd" d="M5.52864 8.47124C5.40366 8.34622 5.33345 8.17668 5.33345 7.9999C5.33345 7.82313 5.40366 7.65359 5.52864 7.52857L9.29997 3.75724C9.36147 3.69356 9.43504 3.64277 9.51637 3.60784C9.59771 3.5729 9.68519 3.55451 9.77371 3.55374C9.86223 3.55297 9.95001 3.56983 10.0319 3.60336C10.1139 3.63688 10.1883 3.68638 10.2509 3.74897C10.3135 3.81157 10.363 3.886 10.3965 3.96793C10.43 4.04986 10.4469 4.13765 10.4461 4.22617C10.4454 4.31469 10.427 4.40217 10.392 4.48351C10.3571 4.56484 10.3063 4.63841 10.2426 4.6999L6.94264 7.9999L10.2426 11.2999C10.3641 11.4256 10.4313 11.594 10.4298 11.7688C10.4282 11.9436 10.3581 12.1108 10.2345 12.2344C10.1109 12.3581 9.94371 12.4282 9.76891 12.4297C9.59411 12.4312 9.42571 12.364 9.29997 12.2426L5.52864 8.47124Z" fill="white"/>
</svg>
