<svg width="16" height="16" viewBox="0 0 16 16" fill="none" xmlns="http://www.w3.org/2000/svg">
<path fill-rule="evenodd" clip-rule="evenodd" d="M10.4714 7.52876C10.5963 7.65378 10.6665 7.82332 10.6665 8.0001C10.6665 8.17687 10.5963 8.34641 10.4714 8.47143L6.70003 12.2428C6.63853 12.3064 6.56496 12.3572 6.48363 12.3922C6.40229 12.4271 6.31481 12.4455 6.22629 12.4463C6.13777 12.447 6.04999 12.4302 5.96806 12.3966C5.88613 12.3631 5.81169 12.3136 5.7491 12.251C5.6865 12.1884 5.637 12.114 5.60348 12.0321C5.56996 11.9501 5.55309 11.8623 5.55386 11.7738C5.55463 11.6853 5.57302 11.5978 5.60796 11.5165C5.6429 11.4352 5.69368 11.3616 5.75736 11.3001L9.05736 8.0001L5.75736 4.7001C5.63592 4.57436 5.56872 4.40596 5.57024 4.23116C5.57176 4.05637 5.64187 3.88916 5.76548 3.76555C5.88908 3.64195 6.05629 3.57183 6.23109 3.57031C6.40589 3.56879 6.57429 3.63599 6.70003 3.75743L10.4714 7.52876Z" fill="white"/>
</svg>
