<svg width="30" height="30" viewBox="0 0 30 30" fill="none" xmlns="http://www.w3.org/2000/svg">
<g clip-path="url(#clip0_2902_17165)">
<path d="M21.4179 6.39318L21.0138 20.1971C20.9643 21.8881 20.2451 23.5296 19.0143 24.7604C17.7835 25.9912 16.142 26.7104 14.451 26.7599C12.7599 26.8094 11.1578 26.1851 9.99695 25.0243C8.83623 23.8636 8.2119 22.2614 8.26142 20.5703L8.66544 6.76642C8.69843 5.63904 9.17794 4.54471 9.99845 3.72421C10.819 2.9037 11.9133 2.42418 13.0407 2.39119C14.168 2.35821 15.2362 2.77438 16.01 3.54823C16.7839 4.32208 17.2 5.39022 17.1671 6.51759L16.7552 20.3292C16.7388 20.8929 16.4991 21.4401 16.0888 21.8503C15.6785 22.2606 15.1314 22.5003 14.5676 22.5168C14.004 22.5333 13.4699 22.3252 13.083 21.9383C12.6961 21.5514 12.4879 21.0173 12.5045 20.4536L12.885 7.70852" stroke="#185CAB" stroke-width="1.5" stroke-linecap="round" stroke-linejoin="round"/>
</g>
<defs>
<clipPath id="clip0_2902_17165">
<rect width="30" height="30" fill="white"/>
</clipPath>
</defs>
</svg>
