<svg width="16" height="16" viewBox="0 0 16 16" fill="none" xmlns="http://www.w3.org/2000/svg">
<path fill-rule="evenodd" clip-rule="evenodd" d="M8.47136 10.4712C8.34634 10.5962 8.1768 10.6664 8.00003 10.6664C7.82325 10.6664 7.65371 10.5962 7.52869 10.4712L3.75736 6.6999C3.69369 6.63841 3.6429 6.56484 3.60796 6.48351C3.57302 6.40217 3.55463 6.31469 3.55386 6.22617C3.55309 6.13765 3.56996 6.04986 3.60348 5.96793C3.637 5.886 3.6865 5.81157 3.7491 5.74897C3.81169 5.68638 3.88612 5.63688 3.96806 5.60336C4.04999 5.56983 4.13777 5.55297 4.22629 5.55374C4.31481 5.55451 4.40229 5.5729 4.48363 5.60784C4.56496 5.64277 4.63853 5.69356 4.70003 5.75724L8.00003 9.05724L11.3 5.75724C11.4258 5.6358 11.5942 5.5686 11.769 5.57012C11.9438 5.57164 12.111 5.64175 12.2346 5.76536C12.3582 5.88896 12.4283 6.05617 12.4298 6.23097C12.4313 6.40577 12.3641 6.57417 12.2427 6.6999L8.47136 10.4712Z" fill="#185CAB"/>
</svg>
