<svg width="12" height="8" viewBox="0 0 12 8" fill="none" xmlns="http://www.w3.org/2000/svg">
<path fill-rule="evenodd" clip-rule="evenodd" d="M6.58905 7.08929C6.43277 7.24552 6.22085 7.33328 5.99988 7.33328C5.77891 7.33328 5.56699 7.24552 5.41071 7.08929L0.696546 2.37512C0.616954 2.29825 0.553469 2.2063 0.509794 2.10463C0.46612 2.00296 0.443132 1.89361 0.44217 1.78296C0.441209 1.67231 0.462294 1.56258 0.504194 1.46016C0.546095 1.35775 0.607973 1.2647 0.686217 1.18646C0.764461 1.10822 0.857504 1.04634 0.959917 1.00444C1.06233 0.962537 1.17206 0.941453 1.28271 0.942414C1.39336 0.943376 1.50271 0.966364 1.60438 1.01004C1.70605 1.05371 1.79801 1.1172 1.87488 1.19679L5.99988 5.32179L10.1249 1.19679C10.282 1.04499 10.4925 0.960996 10.711 0.962894C10.9295 0.964793 11.1386 1.05243 11.2931 1.20694C11.4476 1.36145 11.5352 1.57046 11.5371 1.78896C11.539 2.00745 11.455 2.21795 11.3032 2.37512L6.58905 7.08929Z" fill="black"/>
</svg>
