<svg width="8" height="8" viewBox="0 0 8 8" fill="none" xmlns="http://www.w3.org/2000/svg">
<path fill-rule="evenodd" clip-rule="evenodd" d="M6.84997 2.09463C7.00497 2.23163 7.01947 2.46863 6.88247 2.62463L4.00747 5.87463C3.97427 5.91218 3.93388 5.94268 3.88869 5.96435C3.84349 5.98601 3.79442 5.9984 3.74436 6.00078C3.6943 6.00316 3.64427 5.99548 3.59722 5.97819C3.55018 5.9609 3.50708 5.93436 3.47047 5.90013L1.59547 4.15013C1.52334 4.08216 1.48105 3.98839 1.47786 3.88932C1.47466 3.79026 1.51081 3.69396 1.57841 3.62147C1.64601 3.54899 1.73955 3.50621 1.8386 3.50249C1.93764 3.49877 2.03413 3.53442 2.10697 3.60163L3.70197 5.08663L6.32197 2.12663C6.35464 2.08968 6.39427 2.05954 6.43861 2.03792C6.48294 2.01631 6.5311 2.00365 6.58033 2.00068C6.62956 1.99771 6.6789 2.00448 6.72551 2.0206C6.77212 2.03672 6.8151 2.06188 6.85197 2.09463H6.84997Z" fill="white"/>
</svg>
